{"title":"Crime of Passion S01E03 No More Murders x264 RB58.mp4","uid":11029900,"size":989631063,"categoryP":"video","categoryS":"tv_shows","magnet":"?xt=urn:btih:b6b08ac03c00804e5206e530f5cbcfae011103c5&amp;dn=Crime+of+Passion+S01E03+No+More+Murders+x264+RB58.mp4&amp;tr=udp%3A%2F%2Ftracker.openbittorrent.com%3A80&amp;tr=udp%3A%2F%2Fopen.demonii.com%3A1337&amp;tr=udp%3A%2F%2Ftracker.coppersurfer.tk%3A6969&amp;tr=udp%3A%2F%2Fexodus.desync.com%3A6969","seeders":1,"leechers":0,"uploader":"RedBaron58","files":1,"time":1410710734,"description":"Crimes of Passion (Swedish) S01E03 English Subs x264 mp4\n\nIn Swedish With BBC Hard Coded Engish Subtitles \n\nEpisode Title: No More Murders\n &lt;a href=&quot;\nhttp://www.imdb.com/title/tt2511752/&quot; rel=&quot;nofollow&quot; target=&quot;_NEW&quot;&gt;\nhttp://www.imdb.com/title/tt2511752/&lt;/a&gt;\n\nTrailer: (E01)\n\n\nThank you for your kind comments and thumbs ups on my other torrents, your feedback is welcome.\n\n\nAbout the Episode:\nAfter deciding to spend the last weeks of their vacation in Einar's childhood town of Skoga, \nnewlyweds Puck and Einar find a young man stabbed to death with a dagger on their lawn. \n\nSwedish crime drama, starring Tuva Novotny\n\n\nI hope you enjoy.\n\nTechnical:\n\nGeneral\nComplete name                            : H:Crime of Passion S01E03 No More Murders x264 RB58.mp4\nFormat                                   : MPEG-4\nFormat profile                           : Base Media\nCodec ID                                 : isom\nFile size                                : 944 MiB\nDuration                                 : 1h 26mn\nOverall bit rate                         : 1 529 Kbps\nWriting application                      : Lavf54.63.104\n\nVideo\nID                                       : 1\nFormat                                   : AVC\nFormat/Info                              : Advanced Video Codec\nFormat profile                           : &lt;a class=&quot;__cf_email__&quot; href=&quot;/cdn-cgi/l/email-protection&quot; data-cfemail=&quot;347c5d535c7478071a04&quot;&gt;[email&amp;#160;protected]&lt;/a&gt;&lt;script cf-hash='f9e31' type=&quot;text/javascript&quot;&gt;\n/* &lt;![CDATA[ */!function(){try{var t=&quot;currentScript&quot;in document?document.currentScript:function(){for(var t=document.getElementsByTagName(&quot;script&quot;),e=t.length;e--;)if(t[e].getAttribute(&quot;cf-hash&quot;))return t[e]}();if(t&amp;&amp;t.previousSibling){var e,r,n,i,c=t.previousSibling,a=c.getAttribute(&quot;data-cfemail&quot;);if(a){for(e=&quot;&quot;,r=parseInt(a.substr(0,2),16),n=2;a.length-n;n+=2)i=parseInt(a.substr(n,2),16)^r,e+=String.fromCharCode(i);e=document.createTextNode(e),c.parentNode.replaceChild(e,c)}}}catch(u){}}();/* ]]&gt; */&lt;/script&gt;\nFormat settings, CABAC                   : Yes\nFormat settings, ReFrames                : 4 frames\nCodec ID                                 : avc1\nCodec ID/Info                            : Advanced Video Coding\nDuration                                 : 1h 26mn\nBit rate                                 : 1 400 Kbps\nWidth                                    : 832 pixels\nHeight                                   : 468 pixels\nDisplay aspect ratio                     : 16:9\nFrame rate mode                          : Constant\nFrame rate                               : 25.000 fps\nColor space                              : YUV\nChroma subsampling                       : 4:2:0\nBit depth                                : 8 bits\nScan type                                : Progressive\nBits/(Pixel*Frame)                       : 0.144\nStream size                              : 864 MiB (92%)\nWriting library                          : x264 core 123 r2189 35cf912\nEncoding settings                        : cabac=1 / ref=3 / deblock=1:0:0\n\nAudio\nID                                       : 2\nFormat                                   : AAC\nFormat/Info                              : Advanced Audio Codec\nFormat profile                           : LC\nCodec ID                                 : 40\nDuration                                 : 1h 26mn\nBit rate mode                            : Constant\nBit rate                                 : 121 Kbps\nChannel(s)                               : 2 channels\nChannel positions                        : Front: L R\nSampling rate                            : 48.0 KHz\nCompression mode                         : Lossy\nStream size                              : 74.4 MiB (8%)","torrent":{"xt":"urn:btih:b6b08ac03c00804e5206e530f5cbcfae011103c5","amp;dn":"Crime+of+Passion+S01E03+No+More+Murders+x264+RB58.mp4","amp;tr":["udp%3A%2F%2Ftracker.openbittorrent.com%3A80","udp%3A%2F%2Fopen.demonii.com%3A1337","udp%3A%2F%2Ftracker.coppersurfer.tk%3A6969","udp%3A%2F%2Fexodus.desync.com%3A6969"],"infoHash":"b6b08ac03c00804e5206e530f5cbcfae011103c5","infoHashBuffer":{"type":"Buffer","data":[182,176,138,192,60,0,128,78,82,6,229,48,245,203,207,174,1,17,3,197]},"announce":[],"urlList":[]}}